<svg xmlns="http://www.w3.org/2000/svg" width="360" height="140" viewBox="0 0 360 140" role="img" aria-label="DataOrca icon">
  <title>DataOrca Icon</title>

  <!-- Icon-only: submarine-inspired orca (clean, no blue lines) -->
  <g transform="translate(40,38)">
    <!-- Main hull -->
    <path d="
      M 0 40
      L 24 24
      L 84 14
      L 176 14
      L 236 26
      L 264 40
      L 236 54
      L 176 66
      L 84 66
      L 24 56
      Z"
      fill="#0A0F1F"/>

    <!-- Nose cone -->
    <path d="
      M 264 40
      L 292 32
      L 304 40
      L 292 48
      Z"
      fill="#0A0F1F"/>

    <!-- Conning tower / dorsal fin -->
    <path d="
      M 132 14
      L 146 -8
      L 160 14
      Z"
      fill="#0A0F1F"/>

    <!-- Tail fin -->
    <path d="
      M 0 40
      L -16 28
      L -10 40
      L -16 52
      Z"
      fill="#0A0F1F"/>

    <!-- Eye patch / sensor -->
    <path d="
      M 210 32
      L 234 28
      L 246 32
      L 234 36
      Z"
      fill="#F8FAFC"/>

    <!-- Belly panel -->
    <path d="
      M 92 48
      L 142 38
      L 196 42
      L 160 56
      L 108 56
      Z"
      fill="#F8FAFC"/>

    <!-- Sensor eye -->
    <circle cx="248" cy="32" r="2.2" fill="#0A0F1F"/>
  </g>
</svg>
