<?xml version="1.0" encoding="iso-8859-1"?>
<!-- Uploaded to: SVG Repo, www.svgrepo.com, Generator: SVG Repo Mixer Tools -->
<svg height="800px" width="800px" version="1.1" id="Layer_1" xmlns="http://www.w3.org/2000/svg" xmlns:xlink="http://www.w3.org/1999/xlink" 
	 viewBox="0 0 400 400" xml:space="preserve">
<g id="XMLID_884_">
	<path id="XMLID_63_" style="fill:#001B3C;" d="M180,240L180,240c-22.092,0-40,17.908-40,40l0,0c0,22.092,17.908,40,40,40l0,0"/>
	<path id="XMLID_62_" style="fill:#003778;" d="M190,80H51c-28.167,0-51,22.834-51,51v98c0,28.167,22.833,51,51,51h139V80z"/>
	<path id="XMLID_889_" style="fill:#001B3C;" d="M400,150c0,0-15.714,0-31.428,0c-7.857,0-23.572,7.857-23.572,15.715
		c0-7.858-15.715-15.715-23.572-15.715c-15.714,0-31.428,0-31.428,0c0,19.638,16.367,39.262,40,45.27V205c0,19.331-15.67,35-35,35
		s-35-15.669-35-35v-74c0-28.166-22.834-51-51-51h-29v200h129c28.167,0,51-22.833,51-51v-33.73C383.633,189.262,400,169.638,400,150
		z"/>
	<g id="XMLID_890_">
		<ellipse id="XMLID_891_" style="fill:#FFFFFF;" cx="100" cy="195" rx="50" ry="35"/>
	</g>
	<g id="XMLID_892_">
		<circle id="XMLID_893_" style="fill:#001B3C;" cx="100" cy="200.001" r="10"/>
	</g>
</g>
</svg>